<mxfile host="app.diagrams.net" modified="2023-11-09T08:40:06.860Z" agent="Mozilla/5.0 (Macintosh; Intel Mac OS X 10_15_7) AppleWebKit/537.36 (KHTML, like Gecko) Chrome/119.0.0.0 Safari/537.36" version="22.1.0" etag="hT_brMroXm_tf22V7wk5" type="github">
  <diagram name="第 1 页" id="oqhqqWGbx-FEBw2WvHf6">
    <mxGraphModel>
      <root>
        <mxCell id="0" />
        <mxCell id="1" parent="0" />
      </root>
    </mxGraphModel>
  </diagram>
</mxfile>
